<svg xmlns="http://www.w3.org/2000/svg" xmlns:xlink="http://www.w3.org/1999/xlink" width="200" zoomAndPan="magnify" viewBox="0 0 150 52.499999" height="70" preserveAspectRatio="xMidYMid meet" version="1.0"><defs><g/><clipPath id="748cec9a3a"><path d="M 118.046875 21.027344 L 133.648438 21.027344 L 133.648438 36.628906 L 118.046875 36.628906 Z M 118.046875 21.027344 " clip-rule="nonzero"/></clipPath><clipPath id="11b82bbf8b"><path d="M 1 33 L 20 33 L 20 52.003906 L 1 52.003906 Z M 1 33 " clip-rule="nonzero"/></clipPath></defs><g clip-path="url(#748cec9a3a)"><path fill="#0ed9cd" d="M 133.636719 28.824219 C 133.636719 29.335938 133.589844 29.84375 133.488281 30.34375 C 133.386719 30.847656 133.242188 31.332031 133.042969 31.808594 C 132.847656 32.28125 132.609375 32.730469 132.324219 33.15625 C 132.039062 33.582031 131.714844 33.972656 131.355469 34.335938 C 130.992188 34.699219 130.597656 35.019531 130.171875 35.304688 C 129.746094 35.589844 129.296875 35.828125 128.824219 36.027344 C 128.351562 36.222656 127.867188 36.371094 127.363281 36.46875 C 126.863281 36.570312 126.355469 36.617188 125.84375 36.617188 C 125.332031 36.617188 124.824219 36.570312 124.320312 36.46875 C 123.820312 36.371094 123.332031 36.222656 122.859375 36.027344 C 122.386719 35.828125 121.9375 35.589844 121.511719 35.304688 C 121.085938 35.019531 120.691406 34.699219 120.332031 34.335938 C 119.96875 33.972656 119.644531 33.582031 119.359375 33.15625 C 119.078125 32.730469 118.835938 32.28125 118.640625 31.808594 C 118.445312 31.332031 118.296875 30.847656 118.195312 30.34375 C 118.097656 29.84375 118.046875 29.335938 118.046875 28.824219 C 118.046875 28.3125 118.097656 27.804688 118.195312 27.304688 C 118.296875 26.800781 118.445312 26.3125 118.640625 25.839844 C 118.835938 25.367188 119.078125 24.917969 119.359375 24.492188 C 119.644531 24.066406 119.96875 23.671875 120.332031 23.3125 C 120.691406 22.949219 121.085938 22.625 121.511719 22.34375 C 121.9375 22.058594 122.386719 21.816406 122.859375 21.621094 C 123.332031 21.425781 123.820312 21.277344 124.320312 21.179688 C 124.824219 21.078125 125.332031 21.027344 125.84375 21.027344 C 126.355469 21.027344 126.863281 21.078125 127.363281 21.179688 C 127.867188 21.277344 128.351562 21.425781 128.824219 21.621094 C 129.296875 21.816406 129.746094 22.058594 130.171875 22.34375 C 130.597656 22.625 130.992188 22.949219 131.355469 23.3125 C 131.714844 23.671875 132.039062 24.066406 132.324219 24.492188 C 132.609375 24.917969 132.847656 25.367188 133.042969 25.839844 C 133.242188 26.3125 133.386719 26.800781 133.488281 27.304688 C 133.589844 27.804688 133.636719 28.3125 133.636719 28.824219 Z M 133.636719 28.824219 " fill-opacity="1" fill-rule="nonzero"/></g><path fill="#fefefe" d="M 125.84375 32.476562 C 125.703125 32.476562 125.566406 32.449219 125.433594 32.394531 C 125.300781 32.339844 125.183594 32.261719 125.085938 32.164062 C 124.984375 32.0625 124.90625 31.945312 124.851562 31.8125 C 124.796875 31.683594 124.769531 31.546875 124.769531 31.402344 C 124.769531 31.261719 124.796875 31.125 124.851562 30.992188 C 124.90625 30.859375 124.984375 30.742188 125.085938 30.644531 C 125.183594 30.542969 125.300781 30.464844 125.433594 30.410156 C 125.566406 30.355469 125.703125 30.328125 125.84375 30.328125 C 125.988281 30.328125 126.125 30.355469 126.253906 30.410156 C 126.386719 30.464844 126.503906 30.542969 126.605469 30.644531 C 126.703125 30.742188 126.78125 30.859375 126.835938 30.992188 C 126.890625 31.125 126.917969 31.261719 126.917969 31.402344 C 126.917969 31.546875 126.890625 31.683594 126.835938 31.8125 C 126.78125 31.945312 126.703125 32.0625 126.605469 32.164062 C 126.503906 32.261719 126.386719 32.339844 126.253906 32.394531 C 126.125 32.449219 125.988281 32.476562 125.84375 32.476562 Z M 125.84375 32.476562 " fill-opacity="1" fill-rule="nonzero"/><path fill="#fefefe" d="M 123.878906 29.929688 C 123.621094 30.183594 123.199219 30.183594 122.941406 29.929688 C 122.683594 29.671875 122.683594 29.246094 122.941406 28.988281 C 123.324219 28.609375 123.777344 28.308594 124.277344 28.101562 C 124.769531 27.894531 125.300781 27.789062 125.84375 27.789062 C 126.382812 27.789062 126.914062 27.894531 127.414062 28.101562 C 127.910156 28.308594 128.367188 28.609375 128.75 28.988281 C 129.003906 29.246094 129.003906 29.671875 128.75 29.929688 C 128.484375 30.183594 128.066406 30.183594 127.808594 29.929688 C 127.546875 29.664062 127.242188 29.460938 126.910156 29.324219 C 126.578125 29.1875 126.21875 29.113281 125.84375 29.113281 C 125.472656 29.113281 125.109375 29.1875 124.78125 29.324219 C 124.449219 29.460938 124.144531 29.664062 123.878906 29.929688 Z M 123.878906 29.929688 " fill-opacity="1" fill-rule="nonzero"/><path fill="#fefefe" d="M 122.03125 28.078125 C 121.773438 28.339844 121.355469 28.339844 121.09375 28.078125 C 120.835938 27.820312 120.835938 27.402344 121.09375 27.140625 C 121.71875 26.511719 122.464844 26.023438 123.273438 25.6875 C 124.085938 25.347656 124.957031 25.171875 125.84375 25.171875 C 126.734375 25.171875 127.601562 25.347656 128.410156 25.6875 C 129.226562 26.023438 129.964844 26.511719 130.59375 27.140625 C 130.855469 27.402344 130.855469 27.820312 130.59375 28.078125 C 130.335938 28.339844 129.917969 28.339844 129.65625 28.078125 C 129.152344 27.574219 128.554688 27.179688 127.910156 26.910156 C 127.261719 26.640625 126.5625 26.503906 125.84375 26.503906 C 125.125 26.503906 124.421875 26.640625 123.777344 26.910156 C 123.136719 27.179688 122.539062 27.574219 122.03125 28.078125 Z M 122.03125 28.078125 " fill-opacity="1" fill-rule="nonzero"/><path fill="#ffb213" d="M 15.796875 11.871094 C 16.503906 11.871094 17.082031 11.292969 17.082031 10.574219 L 17.082031 8.066406 C 17.082031 4.816406 19.703125 2.171875 22.929688 2.171875 C 26.15625 2.171875 28.777344 4.816406 28.777344 8.066406 L 28.777344 10.574219 C 28.777344 11.292969 29.351562 11.871094 30.0625 11.871094 C 30.773438 11.871094 31.347656 11.292969 31.347656 10.574219 L 31.347656 8.417969 C 31.347656 3.882812 27.976562 -0.101562 23.484375 -0.402344 C 18.601562 -0.726562 14.511719 3.199219 14.511719 8.066406 L 14.511719 10.574219 C 14.511719 11.292969 15.085938 11.871094 15.796875 11.871094 Z M 15.796875 11.871094 " fill-opacity="1" fill-rule="nonzero"/><path fill="#0ed9cd" d="M 42.816406 45.597656 L 39.992188 17.839844 C 39.765625 15.628906 37.925781 13.957031 35.726562 13.957031 L 10.132812 13.957031 C 7.933594 13.957031 6.09375 15.640625 5.867188 17.839844 L 5.15625 24.75 C 4.683594 29.390625 9.054688 33.011719 13.464844 31.652344 L 15.859375 30.914062 C 18.582031 30.074219 21.625 31.464844 22.691406 34.515625 C 23.0625 35.574219 23.011719 36.738281 22.683594 37.816406 L 21.625 41.304688 C 20.164062 46.117188 23.730469 50.984375 28.714844 50.984375 L 38.007812 50.984375 C 40.875 50.976562 43.117188 48.472656 42.816406 45.597656 Z M 42.816406 45.597656 " fill-opacity="1" fill-rule="nonzero"/><g clip-path="url(#11b82bbf8b)"><path fill="#ffb213" d="M 16.761719 33.882812 L 2.917969 38.148438 C 0.902344 38.769531 0.757812 41.59375 2.703125 42.421875 L 6 43.824219 C 7.75 44.570312 9.144531 45.972656 9.886719 47.746094 L 11.273438 51.078125 C 12.097656 53.039062 14.890625 52.894531 15.507812 50.859375 L 19.734375 36.882812 C 20.296875 35.046875 18.59375 33.324219 16.761719 33.882812 Z M 16.761719 33.882812 " fill-opacity="1" fill-rule="nonzero"/></g><g fill="#545454" fill-opacity="1"><g transform="translate(44.436298, 34.281303)"><g><path d="M 8.792969 -6.476562 C 9.652344 -7.070312 10.175781 -8.054688 10.175781 -9.105469 C 10.175781 -10.914062 8.597656 -12.265625 6.476562 -12.265625 L 1.402344 -12.265625 L 1.402344 0.015625 L 6.617188 0.015625 C 8.757812 0.015625 10.492188 -1.5625 10.492188 -3.527344 C 10.492188 -4.84375 9.863281 -5.894531 8.792969 -6.476562 Z M 7.597656 -8.703125 C 7.597656 -7.929688 7.054688 -7.386719 6.230469 -7.386719 L 4 -7.386719 L 4 -10 L 6.230469 -10 C 7.054688 -10 7.597656 -9.476562 7.597656 -8.703125 Z M 6.371094 -2.421875 L 4 -2.421875 L 4 -5.175781 L 6.371094 -5.175781 C 7.246094 -5.175781 7.824219 -4.597656 7.824219 -3.808594 C 7.824219 -3 7.246094 -2.421875 6.371094 -2.421875 Z M 6.371094 -2.421875 "/></g></g></g><g fill="#545454" fill-opacity="1"><g transform="translate(55.699532, 34.281303)"><g><path d="M 8.949219 -9.476562 L 8.6875 -8.582031 C 7.859375 -9.300781 6.789062 -9.738281 5.5625 -9.738281 C 2.71875 -9.738281 0.597656 -7.597656 0.597656 -4.738281 C 0.597656 -1.878906 2.71875 0.28125 5.5625 0.28125 C 6.773438 0.28125 7.824219 -0.140625 8.632812 -0.859375 L 8.859375 0 L 10.863281 0 L 10.863281 -9.476562 Z M 5.773438 -2.140625 C 4.28125 -2.140625 3.195312 -3.265625 3.195312 -4.738281 C 3.195312 -6.230469 4.28125 -7.335938 5.773438 -7.335938 C 7.265625 -7.335938 8.351562 -6.230469 8.351562 -4.738281 C 8.351562 -3.246094 7.265625 -2.140625 5.773438 -2.140625 Z M 5.773438 -2.140625 "/></g></g></g><g fill="#545454" fill-opacity="1"><g transform="translate(67.804881, 34.281303)"><g><path d="M 1.226562 0 L 3.789062 0 L 3.789062 -12.878906 L 1.226562 -12.878906 Z M 1.226562 0 "/></g></g></g><g fill="#545454" fill-opacity="1"><g transform="translate(72.82246, 34.281303)"><g><path d="M 7.773438 -9.476562 L 5.40625 -3.632812 L 2.878906 -9.476562 L 0.0859375 -9.476562 L 4.105469 -0.71875 L 4.070312 -0.648438 C 3.492188 0.789062 3.175781 1.121094 1.929688 1.121094 L 1.054688 1.121094 L 1.054688 3.421875 L 2.105469 3.421875 C 4.230469 3.421875 5.230469 2.457031 6.371094 -0.121094 L 10.492188 -9.476562 Z M 7.773438 -9.476562 "/></g></g></g><g fill="#545454" fill-opacity="1"><g transform="translate(83.383934, 34.281303)"><g><path d="M 8.949219 -9.476562 L 8.6875 -8.582031 C 7.859375 -9.300781 6.789062 -9.738281 5.5625 -9.738281 C 2.71875 -9.738281 0.597656 -7.597656 0.597656 -4.738281 C 0.597656 -1.878906 2.71875 0.28125 5.5625 0.28125 C 6.773438 0.28125 7.824219 -0.140625 8.632812 -0.859375 L 8.859375 0 L 10.863281 0 L 10.863281 -9.476562 Z M 5.773438 -2.140625 C 4.28125 -2.140625 3.195312 -3.265625 3.195312 -4.738281 C 3.195312 -6.230469 4.28125 -7.335938 5.773438 -7.335938 C 7.265625 -7.335938 8.351562 -6.230469 8.351562 -4.738281 C 8.351562 -3.246094 7.265625 -2.140625 5.773438 -2.140625 Z M 5.773438 -2.140625 "/></g></g></g><g fill="#545454" fill-opacity="1"><g transform="translate(96.133529, 34.281303)"><g><path d="M 5.476562 0.246094 C 8.019531 0.246094 10.125 -1.035156 10.125 -3.683594 C 10.125 -6.441406 7.773438 -7.019531 5.914062 -7.492188 C 4.597656 -7.808594 3.542969 -8.070312 3.542969 -8.929688 C 3.542969 -9.738281 4.40625 -10.105469 5.265625 -10.105469 C 6.265625 -10.105469 7.140625 -9.617188 7.140625 -8.546875 L 9.757812 -8.546875 C 9.757812 -11.003906 8.160156 -12.511719 5.335938 -12.511719 C 2.613281 -12.511719 0.878906 -11.175781 0.878906 -8.828125 C 0.878906 -6.175781 3.125 -5.632812 4.984375 -5.175781 C 6.316406 -4.878906 7.441406 -4.613281 7.441406 -3.648438 C 7.441406 -2.738281 6.457031 -2.210938 5.457031 -2.210938 C 4.371094 -2.210938 3.386719 -2.789062 3.386719 -3.964844 L 0.703125 -3.964844 C 0.703125 -1.332031 2.648438 0.246094 5.476562 0.246094 Z M 5.476562 0.246094 "/></g></g></g><g fill="#545454" fill-opacity="1"><g transform="translate(106.993252, 34.281303)"><g><path d="M 6.648438 -9.6875 C 5.511719 -9.6875 4.507812 -9.265625 3.789062 -8.582031 L 3.789062 -12.878906 L 1.226562 -12.878906 L 1.226562 0 L 3.789062 0 L 3.789062 -4.964844 C 3.789062 -6.511719 4.632812 -7.441406 5.914062 -7.441406 C 7.054688 -7.441406 7.5625 -6.738281 7.5625 -5.316406 L 7.5625 0 L 10.125 0 L 10.125 -5.753906 C 10.125 -8.160156 8.792969 -9.6875 6.648438 -9.6875 Z M 6.648438 -9.6875 "/></g></g></g><g fill="#545454" fill-opacity="1"><g transform="translate(133.661589, 32.542917)"><g><path d="M 6.386719 -9.738281 C 5.210938 -9.738281 4.160156 -9.316406 3.351562 -8.597656 L 2.914062 -9.476562 L 1.226562 -9.476562 L 1.226562 3.421875 L 3.789062 3.421875 L 3.789062 -0.507812 C 4.507812 0 5.40625 0.296875 6.386719 0.296875 C 9.246094 0.296875 11.351562 -1.859375 11.351562 -4.738281 C 11.351562 -7.597656 9.246094 -9.738281 6.386719 -9.738281 Z M 6.175781 -2.140625 C 4.683594 -2.140625 3.597656 -3.246094 3.597656 -4.738281 C 3.597656 -6.210938 4.683594 -7.335938 6.175781 -7.335938 C 7.667969 -7.335938 8.757812 -6.210938 8.757812 -4.738281 C 8.757812 -3.246094 7.667969 -2.140625 6.175781 -2.140625 Z M 6.175781 -2.140625 "/></g></g></g></svg>